<mxfile host="65bd71144e">
    <diagram id="VXaFxo0FiwJ81_RNlHbv" name="Page-1">
        <mxGraphModel dx="717" dy="498" grid="1" gridSize="10" guides="1" tooltips="1" connect="1" arrows="1" fold="1" page="1" pageScale="1" pageWidth="850" pageHeight="1100" math="0" shadow="0">
            <root>
                <mxCell id="0"/>
                <mxCell id="1" parent="0"/>
                <mxCell id="2" value="Header/Navbar" style="rounded=0;whiteSpace=wrap;html=1;" parent="1" vertex="1">
                    <mxGeometry x="30" y="20" width="680" height="60" as="geometry"/>
                </mxCell>
                <mxCell id="8" value="Random Anime Art Footer" style="rounded=0;whiteSpace=wrap;html=1;" parent="1" vertex="1">
                    <mxGeometry x="30" y="373" width="680" height="150" as="geometry"/>
                </mxCell>
                <mxCell id="9" value="Search" style="rounded=0;whiteSpace=wrap;html=1;" parent="1" vertex="1">
                    <mxGeometry x="530" y="40" width="170" height="20" as="geometry"/>
                </mxCell>
                <mxCell id="10" value="Quote" style="rounded=0;whiteSpace=wrap;html=1;" vertex="1" parent="1">
                    <mxGeometry x="60" y="127" width="620" height="20" as="geometry"/>
                </mxCell>
                <mxCell id="11" value="Quote" style="rounded=0;whiteSpace=wrap;html=1;" vertex="1" parent="1">
                    <mxGeometry x="60" y="157" width="620" height="20" as="geometry"/>
                </mxCell>
                <mxCell id="12" value="Quote" style="rounded=0;whiteSpace=wrap;html=1;" vertex="1" parent="1">
                    <mxGeometry x="60" y="187" width="620" height="20" as="geometry"/>
                </mxCell>
                <mxCell id="13" value="Quote" style="rounded=0;whiteSpace=wrap;html=1;" vertex="1" parent="1">
                    <mxGeometry x="60" y="217" width="620" height="20" as="geometry"/>
                </mxCell>
                <mxCell id="14" value="Quote" style="rounded=0;whiteSpace=wrap;html=1;" vertex="1" parent="1">
                    <mxGeometry x="60" y="247" width="620" height="20" as="geometry"/>
                </mxCell>
                <mxCell id="15" value="Quote" style="rounded=0;whiteSpace=wrap;html=1;" vertex="1" parent="1">
                    <mxGeometry x="60" y="277" width="620" height="20" as="geometry"/>
                </mxCell>
                <mxCell id="16" value="Quote" style="rounded=0;whiteSpace=wrap;html=1;" vertex="1" parent="1">
                    <mxGeometry x="60" y="307" width="620" height="20" as="geometry"/>
                </mxCell>
                <mxCell id="18" value="Anime Title" style="rounded=0;whiteSpace=wrap;html=1;" vertex="1" parent="1">
                    <mxGeometry x="230" y="87" width="280" height="33" as="geometry"/>
                </mxCell>
                <mxCell id="20" value="Next" style="rounded=1;whiteSpace=wrap;html=1;" vertex="1" parent="1">
                    <mxGeometry x="470" y="340" width="80" height="20" as="geometry"/>
                </mxCell>
                <mxCell id="21" value="Prev" style="rounded=1;whiteSpace=wrap;html=1;" vertex="1" parent="1">
                    <mxGeometry x="180" y="340" width="80" height="20" as="geometry"/>
                </mxCell>
            </root>
        </mxGraphModel>
    </diagram>
</mxfile>